#!OML:ASF F:\VICON\USERDATA\INSTALL\rory3\rory3.ASF
:FULLY-SPECIFIED
:DEGREES
69
root -1.50341 18.1655 -35.662 3.67875 -0.134658 -1.16223
lowerback 2.99635 -0.508919 -3.53798
upperback -1.9563 -0.722857 3.58373
thorax -3.61915 -0.223591 5.76495
lowerneck -13.2987 -6.64896 -16.1852
upperneck 25.4378 -8.2184 9.99598
head 11.614 -4.16506 5.26078
rclavicle 6.58474e-016 -1.43125e-014
rhumerus -32.8579 -12.4047 -75.5991
rradius 31.1468
rwrist -13.7377
rhand -12.3845 18.8072
rfingers 7.12502
rthumb 13.6865 -10.7227
lclavicle 6.58474e-016 -1.43125e-014
lhumerus -33.874 14.2719 83.31
lradius 28.2011
lwrist -8.15375
lhand -0.432632 31.531
lfingers 7.12502
lthumb 25.1759 59.8906
rfemur -9.86246 -0.0149958 24.1793
rtibia 31.9968
rfoot 0 0
rtoes 0
lfemur -9.82865 -4.06409 -17.5232
ltibia 31.1857
lfoot 0 0
ltoes 0
70
root -1.52079 18.1561 -35.6567 3.62778 0.277354 -1.29916
lowerback 3.25696 -0.566365 -3.45723
upperback -2.00149 -0.798979 3.63204
thorax -3.80456 -0.256877 5.78039
lowerneck -13.4112 -6.64194 -16.0462
upperneck 25.5459 -8.16522 9.76637
head 11.6527 -4.15152 5.15776
rclavicle -1.05356e-014 2.54444e-014
rhumerus -32.9917 -12.4521 -75.546
rradius 31.052
rwrist -13.7364
rhand -12.054 18.8565
rfingers 7.12502
rthumb 14.0049 -10.6518
lclavicle -1.05356e-014 2.54444e-014
lhumerus -34.0192 13.848 83.372
lradius 28.3948
lwrist -8.07644
lhand 0.11288 32.6259
lfingers 7.12502
lthumb 25.6985 60.9111
rfemur -9.73416 -0.00682308 24.4566
rtibia 31.9929
rfoot 0 0
rtoes 0
lfemur -10.2432 -4.23856 -17.277
ltibia 31.9552
lfoot 0 0
ltoes 0
71
root -1.53357 18.1433 -35.657 3.50284 0.495369 -1.32286
lowerback 3.72683 -0.640213 -3.4617
upperback -1.92943 -0.905187 3.71109
thorax -3.98151 -0.305219 5.88262
lowerneck -14.1112 -6.60852 -16.1618
upperneck 25.8574 -7.96112 9.67898
head 11.8861 -4.06667 5.17424
rclavicle 1.90336e-014 -2.3059e-014
rhumerus -32.6255 -12.2209 -75.6379
rradius 30.7776
rwrist -13.6706
rhand -11.4485 19.0743
rfingers 7.12502
rthumb 14.5884 -10.3926
lclavicle 1.90336e-014 -2.3059e-014
lhumerus -33.878 13.9716 83.3882
lradius 28.314
lwrist -8.14205
lhand 0.384695 33.1857
lfingers 7.12502
lthumb 25.9588 61.433
rfemur -9.56328 -0.00510463 24.5351
rtibia 31.967
rfoot 0 0
rtoes 0
lfemur -10.6427 -4.45083 -17.2274
ltibia 32.8667
lfoot 0 0
ltoes 0
72
root -1.54209 18.1325 -35.662 3.37948 0.492315 -1.61132
lowerback 4.03972 -0.601777 -3.18312
upperback -2.12772 -0.838234 3.77434
thorax -4.37701 -0.263432 5.79684
lowerneck -13.298 -6.3313 -16.2547
upperneck 25.9449 -7.70219 9.75258
head 11.721 -3.97528 5.27761
rclavicle 7.82715e-016 1.66979e-014
rhumerus -33.1729 -12.0004 -75.6183
rradius 30.7106
rwrist -13.5363
rhand -12.1146 18.58
rfingers 7.12502
rthumb 13.9466 -10.9323
lclavicle 7.82715e-016 1.66979e-014
lhumerus -34.484 13.8582 83.185
lradius 28.3948
lwrist -8.20834
lhand 0.475148 33.1987
lfingers 7.12502
lthumb 26.0454 61.4332
rfemur -9.43727 0.0713914 24.8765
rtibia 31.9168
rfoot 0 0
rtoes 0
lfemur -11.0851 -4.50386 -16.9044
ltibia 33.8904
lfoot 0 0
ltoes 0
73
root -1.55285 18.1255 -35.6646 3.28864 0.62958 -1.99827
lowerback 4.0698 -0.582331 -2.78567
upperback -1.93036 -0.787988 3.87004
thorax -4.19684 -0.257058 5.66316
lowerneck -13.5365 -6.31589 -16.0449
upperneck 25.9911 -7.63064 9.53533
head 11.7565 -3.9405 5.16635
rclavicle 1.22128e-014 1.59028e-014
rhumerus -33.137 -11.977 -75.727
rradius 30.8504
rwrist -13.45
rhand -12.1529 18.3563
rfingers 7.12502
rthumb 13.9097 -11.1584
lclavicle 1.22128e-014 1.59028e-014
lhumerus -34.2105 13.7442 83.2496
lradius 28.4621
lwrist -8.09699
lhand 0.471698 33.1909
lfingers 7.12502
lthumb 26.0421 61.426
rfemur -9.32675 0.151166 25.3689
rtibia 31.8331
rfoot 0 0
rtoes 0
lfemur -11.6471 -4.45422 -16.4292
ltibia 35.0286
lfoot 0 0
ltoes 0
74
root -1.56701 18.1174 -35.658 3.14807 0.897896 -2.26686
lowerback 3.97435 -0.571611 -2.47397
upperback -1.60249 -0.759478 3.89857
thorax -3.80694 -0.26643 5.50388
lowerneck -13.6051 -6.42356 -15.6252
upperneck 25.5291 -7.73021 9.11676
head 11.5693 -3.97961 4.90099
rclavicle 2.78299e-015 -3.18055e-015
rhumerus -32.85 -12.2892 -75.7854
rradius 30.6971
rwrist -13.3079
rhand -11.9234 18.6983
rfingers 7.12502
rthumb 14.1308 -10.8012
lclavicle 2.78299e-015 -3.18055e-015
lhumerus -33.6842 13.3914 83.4264
lradius 28.4794
lwrist -7.69181
lhand 0.0111073 32.811
lfingers 7.12502
lthumb 25.601 61.1102
rfemur -9.10536 0.199336 25.7595
rtibia 31.7361
rfoot 0 0
rtoes 0
lfemur -12.2127 -4.50392 -16.0813
ltibia 36.2598
lfoot 0 0
ltoes 0
75
root -1.57808 18.1095 -35.6459 2.99572 0.830018 -2.59079
lowerback 4.22509 -0.442799 -2.20134
upperback -1.59962 -0.567926 4.0209
thorax -3.96892 -0.17223 5.46863
lowerneck -13.3821 -6.37413 -15.6917
upperneck 25.4949 -7.64886 9.0259
head 11.4995 -3.96403 4.89288
rclavicle -1.08835e-014 3.33958e-014
rhumerus -32.972 -12.2825 -75.6597
rradius 30.4511
rwrist -13.2061
rhand -11.8914 18.8307
rfingers 7.12502
rthumb 14.1617 -10.6667
lclavicle -1.08835e-014 3.33958e-014
lhumerus -33.8474 13.1016 83.5753
lradius 28.6257
lwrist -7.3791
lhand -0.187448 32.8329
lfingers 7.12502
lthumb 25.4108 61.1593
rfemur -8.81469 0.428708 26.1763
rtibia 31.5677
rfoot 0 0
rtoes 0
lfemur -12.7447 -4.46284 -15.7252
ltibia 37.5736
lfoot 0 0
ltoes 0
